HIERARCHY
ROOT Hips
{
  OFFSET 5.84602e-005 68.8428 3.50346
  CHANNELS 6 Xposition Yposition Zposition Zrotation Xrotation Yrotation
  JOINT Spine
  {
    OFFSET 0 8.597 -4.6522
    CHANNELS 3 Zrotation Xrotation Yrotation
    JOINT Spine1
    {
      OFFSET 0 7.8454 0.4098
      CHANNELS 3 Zrotation Xrotation Yrotation
      JOINT Spine2
      {
        OFFSET 0 9.7078 -2.1609
        CHANNELS 3 Zrotation Xrotation Yrotation
        JOINT Neck
        {
          OFFSET 0 21.8761 -0.4549
          CHANNELS 3 Zrotation Xrotation Yrotation
          JOINT Head
          {
            OFFSET 0 12.3537 3.3602
            CHANNELS 3 Zrotation Xrotation Yrotation
            End Site
            {
              OFFSET 0.0001 18.9506 0.5657
            }
          }
        }
        JOINT LeftShoulder
        {
          OFFSET 2.2086 21.1115 7.2329
          CHANNELS 3 Zrotation Xrotation Yrotation
          JOINT LeftArm
          {
            OFFSET 13.1193 3.0282 -4.8998
            CHANNELS 3 Zrotation Xrotation Yrotation
            JOINT LeftForeArm
            {
              OFFSET 27.4081 -0.0973053 -0.2375
              CHANNELS 3 Zrotation Xrotation Yrotation
              JOINT LeftHand
              {
                OFFSET 22.8641 0.0662994 -0.1369
                CHANNELS 3 Zrotation Xrotation Yrotation
                JOINT LeftHandIndex1
                {
                  OFFSET 8.8614 0.775009 2.4612
                  CHANNELS 3 Zrotation Xrotation Yrotation
                  JOINT LeftHandIndex2
                  {
                    OFFSET 3.3146 -0.808304 0.5841
                    CHANNELS 3 Zrotation Xrotation Yrotation
                    JOINT LeftHandIndex3
                    {
                      OFFSET 2.2628 -0.552002 0.3989
                      CHANNELS 3 Zrotation Xrotation Yrotation
                      End Site
                      {
                        OFFSET 1.6102 -0.4807 0.2612
                      }
                    }
                  }
                }
                JOINT LeftHandMiddle1
                {
                  OFFSET 8.9937 0.895004 0.2143
                  CHANNELS 3 Zrotation Xrotation Yrotation
                  JOINT LeftHandMiddle2
                  {
                    OFFSET 4.0984 0.0113983 -0.0242
                    CHANNELS 3 Zrotation Xrotation Yrotation
                    JOINT LeftHandMiddle3
                    {
                      OFFSET 2.2716 0.00689697 -0.0138001
                      CHANNELS 3 Zrotation Xrotation Yrotation
                      End Site
                      {
                        OFFSET 2.0404 -0.1441 0.0027
                      }
                    }
                  }
                }
                JOINT LeftHandRing1
                {
                  OFFSET 8.5234 0.597198 -2.0164
                  CHANNELS 3 Zrotation Xrotation Yrotation
                  JOINT LeftHandRing2
                  {
                    OFFSET 3.7188 -0.188293 -0.2328
                    CHANNELS 3 Zrotation Xrotation Yrotation
                    JOINT LeftHandRing3
                    {
                      OFFSET 2.1191 -0.106598 -0.1332
                      CHANNELS 3 Zrotation Xrotation Yrotation
                      End Site
                      {
                        OFFSET 1.8737 -0.2304 -0.0886
                      }
                    }
                  }
                }
                JOINT LeftHandPinky1
                {
                  OFFSET 7.9094 -0.601089 -3.4825
                  CHANNELS 3 Zrotation Xrotation Yrotation
                  JOINT LeftHandPinky2
                  {
                    OFFSET 2.2874 -0.477005 -0.6314
                    CHANNELS 3 Zrotation Xrotation Yrotation
                    JOINT LeftHandPinky3
                    {
                      OFFSET 1.6774 -0.349396 -0.4633
                      CHANNELS 3 Zrotation Xrotation Yrotation
                      End Site
                      {
                        OFFSET 1.4888 -0.4091 -0.3416
                      }
                    }
                  }
                }
                JOINT LeftHandThumb1
                {
                  OFFSET 1.833 -1.3875 1.3896
                  CHANNELS 3 Zrotation Xrotation Yrotation
                  JOINT LeftHandThumb2
                  {
                    OFFSET 3.4129 -1.121 2.5732
                    CHANNELS 3 Zrotation Xrotation Yrotation
                    JOINT LeftHandThumb3
                    {
                      OFFSET 2.2474 -0.804199 1.6192
                      CHANNELS 3 Zrotation Xrotation Yrotation
                      End Site
                      {
                        OFFSET 1.6527 -0.5689 1.1317
                      }
                    }
                  }
                }
              }
            }
          }
        }
        JOINT RightShoulder
        {
          OFFSET -2.2086 21.1115 7.2329
          CHANNELS 3 Zrotation Xrotation Yrotation
          JOINT RightArm
          {
            OFFSET -13.1216 3.0287 -4.9007
            CHANNELS 3 Zrotation Xrotation Yrotation
            JOINT RightForeArm
            {
              OFFSET -27.4081 -0.0973053 -0.2375
              CHANNELS 3 Zrotation Xrotation Yrotation
              JOINT RightHand
              {
                OFFSET -22.8641 0.0664063 -0.1369
                CHANNELS 3 Zrotation Xrotation Yrotation
                JOINT RightHandIndex1
                {
                  OFFSET -8.8614 0.774994 2.4612
                  CHANNELS 3 Zrotation Xrotation Yrotation
                  JOINT RightHandIndex2
                  {
                    OFFSET -3.3146 -0.808304 0.5841
                    CHANNELS 3 Zrotation Xrotation Yrotation
                    JOINT RightHandIndex3
                    {
                      OFFSET -2.2628 -0.552002 0.3989
                      CHANNELS 3 Zrotation Xrotation Yrotation
                      End Site
                      {
                        OFFSET -1.6102 -0.4807 0.2612
                      }
                    }
                  }
                }
                JOINT RightHandMiddle1
                {
                  OFFSET -8.9937 0.894989 0.2143
                  CHANNELS 3 Zrotation Xrotation Yrotation
                  JOINT RightHandMiddle2
                  {
                    OFFSET -4.0984 0.0113983 -0.0242
                    CHANNELS 3 Zrotation Xrotation Yrotation
                    JOINT RightHandMiddle3
                    {
                      OFFSET -2.2716 0.00691223 -0.0138001
                      CHANNELS 3 Zrotation Xrotation Yrotation
                      End Site
                      {
                        OFFSET -2.0404 -0.1441 0.0027
                      }
                    }
                  }
                }
                JOINT RightHandRing1
                {
                  OFFSET -8.5234 0.597198 -2.0164
                  CHANNELS 3 Zrotation Xrotation Yrotation
                  JOINT RightHandRing2
                  {
                    OFFSET -3.7188 -0.188309 -0.2328
                    CHANNELS 3 Zrotation Xrotation Yrotation
                    JOINT RightHandRing3
                    {
                      OFFSET -2.1191 -0.106598 -0.1332
                      CHANNELS 3 Zrotation Xrotation Yrotation
                      End Site
                      {
                        OFFSET -1.8737 -0.2304 -0.0886
                      }
                    }
                  }
                }
                JOINT RightHandPinky1
                {
                  OFFSET -7.9094 -0.601105 -3.4825
                  CHANNELS 3 Zrotation Xrotation Yrotation
                  JOINT RightHandPinky2
                  {
                    OFFSET -2.2874 -0.477005 -0.6314
                    CHANNELS 3 Zrotation Xrotation Yrotation
                    JOINT RightHandPinky3
                    {
                      OFFSET -1.6774 -0.349396 -0.4633
                      CHANNELS 3 Zrotation Xrotation Yrotation
                      End Site
                      {
                        OFFSET -1.4888 -0.4091 -0.3416
                      }
                    }
                  }
                }
                JOINT RightHandThumb1
                {
                  OFFSET -1.833 -1.38751 1.3896
                  CHANNELS 3 Zrotation Xrotation Yrotation
                  JOINT RightHandThumb2
                  {
                    OFFSET -3.41299 -1.12099 2.5732
                    CHANNELS 3 Zrotation Xrotation Yrotation
                    JOINT RightHandThumb3
                    {
                      OFFSET -2.24741 -0.804108 1.6192
                      CHANNELS 3 Zrotation Xrotation Yrotation
                      End Site
                      {
                        OFFSET -1.6527 -0.5689 1.1317
                      }
                    }
                  }
                }
              }
            }
          }
        }
      }
    }
  }
  JOINT RightUpLeg
  {
    OFFSET -9.1966 3.8861 -0.7581
    CHANNELS 3 Zrotation Xrotation Yrotation
    JOINT RightLeg
    {
      OFFSET -0.7359 -41.0265 0
      CHANNELS 3 Zrotation Xrotation Yrotation
      JOINT RightFoot
      {
        OFFSET 0 -40.2855 0
        CHANNELS 3 Zrotation Xrotation Yrotation
        JOINT RightToeBase
        {
          OFFSET 0 -5.6122 11.7359
          CHANNELS 3 Zrotation Xrotation Yrotation
          End Site
          {
            OFFSET 0 0 7.8731
          }
        }
      }
    }
  }
  JOINT LeftUpLeg
  {
    OFFSET 9.1965 3.8864 -0.7581
    CHANNELS 3 Zrotation Xrotation Yrotation
    JOINT LeftLeg
    {
      OFFSET 0.7359 -41.0268 0
      CHANNELS 3 Zrotation Xrotation Yrotation
      JOINT LeftFoot
      {
        OFFSET 0 -40.2855 0
        CHANNELS 3 Zrotation Xrotation Yrotation
        JOINT LeftToeBase
        {
          OFFSET 0 -5.6122 11.7359
          CHANNELS 3 Zrotation Xrotation Yrotation
          End Site
          {
            OFFSET 0 0 7.8731
          }
        }
      }
    }
  }
}
MOTION
Frames:	4
Frame Time:	0.0333333
5.84602e-005 68.8428 3.50346 0 0 -0 0 0 -0 0 0 -0 0 0 -0 0 0 -0 0 0 -0 0 0 -0 0 0 -0 0 0 -0 0 0 -0 0 0 -0 0 0 -0 0 0 -0 0 0 -0 -0.0146107 -8.87603e-005 -2.63497e-007 2.99804e-018 -2.42657e-020 -1.42182e-022 0 0 -0 -0.0187562 -0.001176 5.858e-005 5.06224e-018 3.88251e-019 1.21329e-020 0 0 -0 -0.012269 -0.00324817 0.000675346 -1.74678e-018 3.88251e-019 -0 0 0 -0 0 0 -0 0 0 -0 0 0 -0 0 0 -0 0 0 -0 0 0 -0 0 0 -0 0 0 -0 0 0 -0 0 0 -0 0.0149955 -9.10982e-005 2.64101e-007 -9.69331e-018 1.21329e-020 -4.7394e-023 0 0 -0 0.0189956 -0.00119102 -5.96516e-005 -5.41541e-019 0 2.42657e-020 0 0 -0 0.0122698 -0.00324857 -0.000673756 -2.00796e-019 0 -1.94126e-019 0 0 -0 0 0 -0 0 0 -0 3.39842 1.33031 -0.0637918 -5.65207e-008 0.834868 -0.000436188 -3.39935 -2.16518 -0.0642563 -8.89002e-024 -1.18485e-023 -1.48106e-024 -3.39844 1.35642 0.0640283 -3.18788e-007 0.782166 -0.000588827 3.39931 -2.13858 0.0634662 1.1399e-023 0 -0 
7.58017e-005 17.7971 -45.8046 -0 -66.6681 -0 -0.0467619 6.3621 -0.0806387 -0.0852452 12.7244 -0.157486 -0.0852451 12.7244 -0.157486 1.91491e-006 13.3609 -7.60895e-007 3.62223e-008 6.70105 -1.47812e-007 0.461494 0.24969 6.33505 -57.0849 0.493011 22.4412 21.1947 13.9294 -58.176 -5.19221 17.4439 0.145394 8.98153e-007 7.25688e-007 2.82782e-006 7.82465e-007 -1.4471e-006 -4.37489e-007 7.82465e-007 -1.4471e-006 -4.37489e-007 8.98153e-007 7.25688e-007 2.82782e-006 -0.0146035 -9.06447e-005 -5.18001e-007 7.82482e-007 -1.44704e-006 -4.37674e-007 8.98153e-007 7.25688e-007 2.82782e-006 -0.0187475 -0.00117711 6.20395e-005 7.82482e-007 -1.44702e-006 -4.37734e-007 8.98153e-007 7.25688e-007 2.82782e-006 -0.0122928 -0.00325554 0.000675348 7.82459e-007 -1.44705e-006 -4.37667e-007 8.98153e-007 7.25688e-007 2.82782e-006 7.82465e-007 -1.4471e-006 -4.37489e-007 7.82465e-007 -1.4471e-006 -4.37489e-007 -0.454631 0.246272 -6.32351 57.0564 0.501666 -22.4415 -21.1928 13.943 58.1845 5.18474 17.4327 -0.155264 -1.86688e-006 7.12267e-007 4.1907e-008 -3.67487e-006 8.90837e-008 7.19167e-007 -1.86688e-006 7.12267e-007 4.1907e-008 -1.86688e-006 7.12267e-007 4.1907e-008 0.0150118 -9.05159e-005 3.45799e-006 -1.42161e-006 1.02936e-007 4.57173e-007 -1.86688e-006 7.12267e-007 4.1907e-008 0.0189889 -0.00118874 -6.1347e-005 -1.42132e-006 1.02872e-007 4.57179e-007 -1.86688e-006 7.12267e-007 4.1907e-008 0.0122844 -0.00325339 -0.000678288 -1.86768e-006 7.12471e-007 4.19276e-008 -1.86688e-006 7.12267e-007 4.1907e-008 -3.67487e-006 8.90837e-008 7.19167e-007 -1.86688e-006 7.12267e-007 4.1907e-008 -29.0245 -30.1284 -5.78593 6.70378 76.3278 -9.23417 -7.39296 10.3541 -1.16321 -3.84837e-006 -1.94155e-006 2.79417e-007 29.0041 -30.1297 5.75723 -6.70957 76.3282 9.23623 7.37046 10.3574 1.17556 1.04004e-006 5.89519e-007 -1.68183e-007 
2.53378e-005 -4.85932 -71.0197 -180 -83.3313 -180 -0.0670395 9.11552 -0.11652 -0.117295 18.2312 -0.226466 -0.117295 18.2311 -0.226466 -1.03812e-007 19.2312 -3.01653e-007 -2.25156e-008 9.54106 -1.506e-007 0.623713 0.716469 9.38698 -82.8104 0.687357 32.5253 36.1435 5.60372 -82.3874 -7.77305 25.4764 0.272037 -7.95139e-016 1.26725e-014 -1.98785e-015 1.12476e-006 -1.21266e-006 -2.52058e-007 2.00005e-032 -1.44119e-015 7.95139e-016 -7.95139e-016 1.26725e-014 -1.98785e-015 -0.0146032 -8.85871e-005 3.80676e-006 6.80817e-007 -1.17618e-006 -5.14434e-007 -7.95139e-016 1.26725e-014 -1.98785e-015 -0.0187325 -0.00117355 6.04539e-005 -1.59028e-015 4.07509e-015 -1.59028e-015 -7.95139e-016 1.26725e-014 -1.98785e-015 -0.0122266 -0.00323789 0.000672943 6.80583e-007 -1.17591e-006 -5.14488e-007 -7.95139e-016 1.26725e-014 -1.98785e-015 1.12476e-006 -1.21266e-006 -2.52058e-007 2.00005e-032 -1.44119e-015 7.95139e-016 -0.65926 0.729186 -9.44026 82.8422 0.668361 -32.5344 -36.1496 5.59705 82.3571 7.78337 25.515 -0.246343 7.95139e-016 9.44227e-015 7.95139e-016 -2.66903e-031 6.41081e-015 2.38542e-015 7.95139e-016 9.93923e-015 2.38542e-015 7.95139e-016 9.44227e-015 7.95139e-016 0.0149831 -9.1622e-005 1.34225e-006 -7.95139e-016 -1.44119e-015 -7.95139e-016 7.95139e-016 9.44227e-015 7.95139e-016 0.0189945 -0.00118896 -6.00471e-005 7.5864e-033 5.46658e-016 -7.95139e-016 7.95139e-016 9.44227e-015 7.95139e-016 0.012299 -0.00325262 -0.00067665 7.95139e-016 -7.95139e-016 1.59028e-015 7.95139e-016 9.44227e-015 7.95139e-016 -2.66903e-031 6.41081e-015 2.38542e-015 7.95139e-016 9.93923e-015 2.38542e-015 -44.7121 -43.1954 -9.92781 172.876 70.2559 -176.65 -8.49212 15.8359 -2.51333 2.72008e-007 2.81888e-007 -9.67743e-007 44.7923 -43.1918 10.0244 -172.88 70.2555 176.648 8.56616 15.8225 2.45732 1.9474e-007 -8.31959e-008 -2.61833e-008 
-5.28798e-005 0.245724 -65.2572 -180 -89.9981 -180 -0.0612927 8.26032 -0.109371 -0.108171 16.5207 -0.213083 -0.108171 16.5207 -0.213083 3.01166e-006 17.6116 -2.36553e-006 4.1302e-008 8.51996 2.55584e-008 0.533124 1.40704 9.15639 -76.8983 0.730306 30.2495 33.0835 8.32221 -77.4778 -7.66577 24.0974 0.351861 1.26463e-007 -5.51109e-008 8.48917e-007 1.98785e-016 2.88238e-015 -3.18055e-015 -0 -3.57812e-015 -0 1.26463e-007 -5.51109e-008 8.48917e-007 -0.0146281 -8.72207e-005 4.40819e-006 -3.97569e-016 2.43511e-015 -0 1.26463e-007 -5.51109e-008 8.48917e-007 -0.0187514 -0.00117523 5.48008e-005 1.21382e-031 2.18663e-015 -3.18055e-015 1.26463e-007 -5.51109e-008 8.48917e-007 -0.0122837 -0.0032505 0.000677883 -1.98785e-016 3.42904e-015 3.18055e-015 1.26463e-007 -5.51109e-008 8.48917e-007 1.98785e-016 2.88238e-015 -3.18055e-015 -0 -3.57812e-015 -0 -0.657692 1.45533 -9.35078 77.0781 0.647666 -30.2762 -33.1009 8.24994 77.3467 7.71765 24.2472 -0.244859 -2.3236e-006 -2.31329e-007 6.15232e-007 -2.3236e-006 -2.31329e-007 6.15232e-007 -2.3236e-006 -2.31329e-007 6.15232e-007 -2.3236e-006 -2.31329e-007 6.15232e-007 0.0149922 -9.30235e-005 -3.85765e-006 -2.32359e-006 -2.31248e-007 6.15264e-007 -2.3236e-006 -2.31329e-007 6.15232e-007 0.0190092 -0.00119167 -6.012e-005 -2.32359e-006 -2.31228e-007 6.15295e-007 -2.3236e-006 -2.31329e-007 6.15232e-007 0.0122811 -0.00325279 -0.000681857 -2.48391e-006 -3.68992e-007 -3.27521e-007 -2.3236e-006 -2.31329e-007 6.15232e-007 -2.3236e-006 -2.31329e-007 6.15232e-007 -2.3236e-006 -2.31329e-007 6.15232e-007 -40.4339 -40.4024 -7.93632 169.33 77.6059 -172.779 -7.66783 14.8115 -2.57854 -3.91907e-007 4.78222e-008 -3.15025e-006 40.7353 -40.3911 8.31064 -169.331 77.6057 172.776 7.95701 14.7614 2.37341 -7.87562e-007 3.14452e-007 9.82237e-008 
